<?xml version="1.0" encoding="UTF-8"?>
<svg viewBox="0 0 2014 606" xmlns="http://www.w3.org/2000/svg">
<defs>
<style type="text/css">.a{fill:#fff;}.b{fill:#ff0;}.c{fill:red;}.d{stroke:#f98820;stroke-width:6px;fill:url(#n);}.d,.e,.f,.g,.h,.i,.j{stroke-miterlimit:10;}.e,.f,.g,.h,.i,.j{stroke:#fddc44;stroke-width:2px;}.e{fill:url(#m);}.f{fill:url(#l);}.g{fill:url(#k);}.h{fill:url(#j);}.i{fill:url(#i);}.j{fill:url(#h);}.k{fill:#f5851f;}</style>
<radialGradient id="n" cx="1364.8" cy="311.09" r="377.56" gradientUnits="userSpaceOnUse">
<stop stop-color="#c61e25" offset="0"/>
<stop stop-color="#c31e24" offset=".18"/>
<stop stop-color="#b91c22" offset=".33"/>
<stop stop-color="#a81a1f" offset=".47"/>
<stop stop-color="#90161b" offset=".6"/>
<stop stop-color="#711115" offset=".72"/>
<stop stop-color="#4b0c0e" offset=".84"/>
<stop stop-color="#1f0505" offset=".95"/>
<stop stop-color="#0a0201" offset="1"/>
</radialGradient>
<linearGradient id="m" x1="1106.4" x2="1404.3" y1="440.43" y2="440.43" gradientUnits="userSpaceOnUse">
<stop stop-color="#f59f13" offset="0"/>
<stop stop-color="#fbbd09" offset="1"/>
</linearGradient>
<linearGradient id="l" x1="1425.1" x2="1975" y1="439.88" y2="439.88" gradientUnits="userSpaceOnUse">
<stop stop-color="#fcc207" offset="0"/>
<stop stop-color="#f1881c" offset="1"/>
</linearGradient>
<linearGradient id="k" x1="755.02" x2="1142.3" y1="440.36" y2="440.36" gradientUnits="userSpaceOnUse">
<stop stop-color="#f1861d" offset="0"/>
<stop stop-color="#f8b00d" offset="1"/>
</linearGradient>
<linearGradient id="j" x1="756.41" x2="1345" y1="166.88" y2="166.88" gradientUnits="userSpaceOnUse">
<stop stop-color="#f1871c" offset="0"/>
<stop stop-color="#f28e1a" offset=".1"/>
<stop stop-color="#fdc805" offset="1"/>
</linearGradient>
<linearGradient id="i" x1="1622.3" x2="1975.1" y1="166.88" y2="166.88" gradientUnits="userSpaceOnUse">
<stop stop-color="#f9b50b" offset="0"/>
<stop stop-color="#f1891b" offset="1"/>
</linearGradient>
<linearGradient id="h" x1="1308.5" x2="1606.5" y1="167.31" y2="167.31" gradientUnits="userSpaceOnUse">
<stop stop-color="#fecf02" offset="0"/>
<stop stop-color="#fbbe08" offset="1"/>
</linearGradient>
</defs>
<path class="a" d="M4.1,4.1V601.9H602V4.1Z"/>
<path class="b" d="M4.1,4.1V601.9H602V4.1ZM562.3,252.6c-1,18.6-7,41.8-12.2,57.3-21,62.4-45.4,101.2-101.9,101.2-16.6,0-46.1-4.4-56.9-34l-2.6-6.9-4.6,5.8a91.6,91.6,0,0,1-72,35.3c-21.5.1-38.9-7.1-50-20.8l-3.1-3.8-3.2,3.6c-12,13.3-32.9,20.8-57.2,20.8a61.7,61.7,0,0,1-46.5-18.3l-2.9-3.2-3.1,3.1c-12.2,12.2-31.1,18.4-55,17.8-29.2-.7-46.8-16.9-47.4-43.4-.9-40.8,38.6-126.6,55.1-152.7a48.9,48.9,0,0,1,44.5-25.9c13.3,0,22.3,2.7,27.6,8.4s5.9,9.5,6.3,20.1l.6,13.5L185,219c17.3-27.9,46-31.7,74.6-31.7,19.7,0,36.9,7.2,43.9,18.5l2.5,4.1,3.8-3.1a89.9,89.9,0,0,1,58.3-19.3c24.9,0,43.1,6.1,54,18.5a35.5,35.5,0,0,1,6.3,9.4l2.9,5.8,4-4.9A80.2,80.2,0,0,1,499.8,188c21.3,0,37.4,5.7,48,16.8,13.3,14.1,15.2,33.7,14.5,47.7Z"/>
<path class="c" d="M4.1,4.1V601.9H602V4.1Zm575,271.4c-2.8,21.8-17.5,62.1-25.3,78.2C533,396.9,504.9,430,450.9,430c-28.8,0-52.6-9.1-66.4-26.8A108.6,108.6,0,0,1,312,430.3c-20.9,0-39.3-6-53.3-17.1a103.5,103.5,0,0,1-59.6,17A84.8,84.8,0,0,1,148.7,415a99.9,99.9,0,0,1-58.1,14.5c-38.6-1-65.4-25.5-66.1-61-1-47.3,38.9-133.8,57.6-163.7a69.7,69.7,0,0,1,61.6-35.5c28.5,0,38.9,8.2,43.9,18.5,22.1-18.6,51.2-19.7,72-19.7,22.7,0,37.1,6.1,49.4,15.8a112.4,112.4,0,0,1,59.4-15.3c29.4,0,51.3,6.8,66.6,21.9a98.4,98.4,0,0,1,65.1-21.6c33,0,54.8,11.9,67.5,29.7C585.6,223.6,582.4,248.8,579.1,275.5Z"/>
<path d="M0,0V606H606V0ZM597.7,8.3V597.7H8.3V8.3Z"/>
<path d="M576.1,181.9v-4.2H579c2,0,3.1.7,3.1,2.1s-.7,2.1-2.9,2.1Zm10.1,8.5-1.7-3c-1.6-2.7-1.9-3.1-3.3-3.6,2.6-.3,4.1-1.9,4.1-4.2s-1.5-4.2-4.7-4.2H573v15h3.1v-6.2h.6a3,3,0,0,1,2.5.8,16.4,16.4,0,0,1,2,2.9l1.3,2.5h3.7Zm-7.4-19.3a11.7,11.7,0,0,1,.1,23.4h0a11.7,11.7,0,1,1,0-23.4Zm0-2.8a14.5,14.5,0,0,0,0,29h0a14.5,14.5,0,0,0,0-29Zm-79,15.5a84.8,84.8,0,0,0-67.7,29.8,37.7,37.7,0,0,0-6.9-10.4c-12.1-13.6-31.3-19.9-57.2-19.9s-46.3,7.9-60.9,20.3c-7.6-12.4-25.8-20.5-47.6-20.5-28.5,0-59.6,4.1-78.1,33.8-.4-10.8-1.4-16.4-7.4-22.8s-19.2-9.8-30.7-9.8a53.4,53.4,0,0,0-48.2,27.9c-16.5,26.3-56.5,113-55.5,155,.5,27.2,18.7,46.7,51.3,47.5,25.4.6,45.4-6.2,58.1-19a66.1,66.1,0,0,0,49.6,19.6c23.2,0,46.4-7,60.2-22.2,11.7,14.3,29.9,22.6,53.3,22.5a96.2,96.2,0,0,0,75.2-37c9.7,26.3,34.2,36.7,60.9,36.7,58.7,0,84.5-40.3,105.9-104,4.8-14.4,11.3-38.4,12.3-58.5,1.7-33.5-12.4-69-66.6-69Zm-390,160.4c30.3-5.3,37.9,5.7,37,15.7-2.9,30.4-30.8,37.2-55.1,36.6-17.4-.3-33.3-8.4-33.7-28.8-.8-35.7,35.6-118.2,52.7-145.5,8-13,17.6-19.5,32.9-19.5s18.2,7.6,18.1,16.5c-.6,23.8-39.2,96.5-51.9,124.9Zm98.7-28.1c-3.4,9.5-6.3,19.1-8.8,28.8a102.7,102.7,0,0,1,30.2-3.9c14.5.4,23.9,6.4,23.9,18.4,0,29.3-32.3,37.8-54.8,37.9-24.5,0-46.2-14-46.2-40.9,0-31.6,17.1-79.4,33.2-111.2,19.7-39.2,39.9-44.3,74.5-44.3,15.2,0,32.7,6.5,32.7,20.9,0,19.9-16.9,27.5-33.6,28.5-7.2.4-18.2.8-24.7.3,0,0-5.6,8.6-11.5,23.7,31-4.4,44.1,2.6,38.9,20.5-7.1,24.2-28.1,25.8-53.8,21.3Zm152.6-75.4c-8.5,0-13.9,5.3-18.1,11-8.9,12.7-28.4,63.3-31.5,84-2,14.3,4.1,17.1,10.9,17.1,10.8,0,22.8-11.4,27-30.2,0,0-20.6-.4-14.9-18.7s15.9-21.4,33.2-22.1c34.1-1.5,30.6,23.7,28,37.1-8.9,43.6-39.9,78.5-83.7,78.5-30,0-48.7-16.6-48.7-47.2,0-21.8,10.9-55.9,19.5-76,18.2-42.7,37.4-72.4,86-72.4,29.3,0,52.4,10.4,49,37.9-2.5,20-12.5,31.9-30.8,33.2-5.2.5-26,0-19.1-19.9,2.5-6.9,3.4-12.3-6.8-12.3Zm184,36c-5.1,25.6-16.7,56-29.3,78.6-20.5,37-45.5,42.1-67.3,41.8s-46.3-8.2-46.5-41.8c-.1-24.1,10.4-58.2,19.2-80.5,15.4-40.5,31.1-73.4,80.8-72.8,57.9.6,47.6,52.1,43.1,74.6Zm-41.4-25.3c-.5,15.5-23.2,77.4-31.3,91.1-3.5,5.8-7.4,10.8-14.5,10.8s-9-4.5-9.2-9.5c-.4-14,25.2-84,34.1-95.3,3.8-6.1,8.1-7.1,13.2-7C503.3,241.5,503.9,246.8,503.7,251.4Z"/>
<path class="d" d="M1913.6,428s25.5,18.6,19.8,77.3c0,0-5.4,88.9-100.2,96.7H809.9L719.3,310.7v-142H894.9s-32.7-37.6-9.6-99.7c0,0,17.1-57,88-65.7h835.6s68.9,1.2,99.5,68.8c0,0,19,43.2-2.1,95.1h104V428Z"/>
<path class="e" d="m1326.3 314.3a3.4 3.4 0 0 0 -2.9 -2.4h-137.9a3.2 3.2 0 0 0 -2.8 2.3s-76.3 251.9-76.3 252.4a2.3 2.3 0 0 0 2.3 2.3h91.1a2.5 2.5 0 0 0 1.5 -1.7l10.6-34a2.5 2.5 0 0 1 2.1 -1.5h84a2.5 2.5 0 0 1 2.1 1.5l10.8 34a2.6 2.6 0 0 0 1.5 1.7h89.6a2.2 2.2 0 0 0 2.3 -2.2c0-0.5-78-252.4-78-252.4zm-50.7 147.5h-37.5c-1.3 0-2.3-1.5-2.3-2.9s20-65 20-65c0.7-2.4 0.8-2.5 1-2.5h0.1c0.3 0 0.3 0.1 1 2.5 0 0 20 64.5 20 65s-1 2.9-2.3 2.9z"/>
<path class="f" d="M1849.4,395.3H1975V313H1813.5c-15.1,0-36.4,7.8-48.6,16.8s-29.8,29.6-29.8,57.9,17.2,50.4,17.2,50.4c8.8,10.9,31.1,33.7,31.1,33.7a2.8,2.8,0,0,1,.8,2,3.1,3.1,0,0,1-3.1,3.1H1656.7c-15.2,0-16.2-6.1-16.2-6.9s1.9-2.5,1.9-2.5c5.6-2.8,17.2-11.8,17.2-11.8,24.6-19.1,27.6-45.3,27.6-59.4s-2.2-39-27.4-60.8-57.1-22.4-57.1-22.4H1425.1V565.3a1.6,1.6,0,0,0,1.6,1.5h98.8V496c0-1.2,1.9,0,1.9,0l51.5,51.6c18.3,18.5,48.5,19.2,48.5,19.2h194.7c33.2,0,51.7-18,56.8-23s21.8-24,21.8-55.3-14.3-47.2-20.4-54.6-27.1-29.5-31.7-34.2a2.7,2.7,0,0,1-.8-1.9A2.4,2.4,0,0,1,1849.4,395.3Zm-265.9,21.6h-55.4a2.1,2.1,0,0,1-1.5-2.1V386.9a2.1,2.1,0,0,1,1.4-2.1h50.9c5.9,0,17.9,2.9,17.9,16.6S1583.5,416.9,1583.5,416.9Z"/>
<path class="g" d="M1141.3,311.9h-94.6c-.5,0-.8.4-.9.9l-19.6,66.1a.9.9,0,0,1-1.8,0l-20.5-66.1c-.1-.5-.4-.9-.9-.9H898.5a.9.9,0,0,0-.7.6l-18.4,66.3q-.1.9-.9.9a1,1,0,0,1-.9-.7l-19.4-66.3c-.1-.4-.4-.8-.8-.8H756.5a1.5,1.5,0,0,0-1.5,1.5,2.3,2.3,0,0,0,.1.4S832.9,567.5,833,567.6s.6,1.2,1.3,1.2h83.8a1.7,1.7,0,0,0,1.1-1.3c.1,0,29.2-94.4,29.2-94.4s.4-1,.9-1,.8.5.9.9L978.6,568a1.2,1.2,0,0,0,1.2.8h84.4a1.5,1.5,0,0,0,1.4-1.2s76.7-254,76.7-254.2A1.5,1.5,0,0,0,1141.3,311.9Z"/>
<path class="h" d="M991.7,39.7c-15.2,0-36.4,7.8-48.5,16.8s-29.8,29.7-29.8,58.1,17.2,50.5,17.2,50.5c8.8,10.9,31,33.9,31,33.9a3.2,3.2,0,0,1,.8,2.1,3.1,3.1,0,0,1-3.1,3.1H756.4v89.9h243.9c33.2,0,51.7-18.1,56.7-23.2s21.8-23.9,21.8-55.3-14.2-47.6-20.3-54.9-27.1-29.5-31.7-34.2a2.7,2.7,0,0,1-.8-1.9,2.6,2.6,0,0,1,1.6-2.5H1145v172h90.4V122.6H1345V39.7Z"/>
<path class="i" d="m1852.9 204c-15 0-16.1-6.1-16.1-6.9s1.9-2.6 1.9-2.6c5.6-2.7 17.1-11.7 17.1-11.7 24.5-19.2 27.5-45.5 27.5-59.6s-2.1-39.1-27.3-61-56.9-22.5-56.9-22.5h-176.8v253a1.5 1.5 0 0 0 1.6 1.4h98.4v-70.9c0-1.3 1.9 0 1.9 0l51.3 51.7c18.2 18.6 48.3 19.2 48.3 19.2h151.3v-90.1zm-72.8-60.2h-55.2a2.3 2.3 0 0 1 -1.5 -2.2v-28a2.2 2.2 0 0 1 1.4 -2.1h50.7c5.8 0 17.7 3 17.7 16.7s-13.1 15.6-13.1 15.6z"/>
<path class="j" d="m1528.3 42.7a3.1 3.1 0 0 0 -2.8 -2.2h-138a3.1 3.1 0 0 0 -2.8 2.2s-76.2 248.7-76.2 249.1a2.3 2.3 0 0 0 2.3 2.3h91.1a2.5 2.5 0 0 0 1.5 -1.7l10.6-33.6a2.4 2.4 0 0 1 2.1 -1.4h84a2.5 2.5 0 0 1 2.1 1.5l10.9 33.5a2.6 2.6 0 0 0 1.4 1.7h89.7a2.2 2.2 0 0 0 2.3 -2.2c0-0.4-78.2-249.2-78.2-249.2zm-50.5 145.7h-37.6c-1.4 0-2.2-1.5-2.2-2.9s19.9-64.1 19.9-64.1c0.8-2.4 1-2.4 1.1-2.4 0.2 0 0.4 0 1.1 2.4 0 0 20 63.6 20 64.1s-1 2.9-2.3 2.9z"/>
<path class="k" d="m1950.8 603.8a15.6 15.6 0 1 0 -15.6 -15.6 15.6 15.6 0 0 0 15.6 15.6zm0.1-28.2a12.6 12.6 0 1 1 -12.5 12.6 12.7 12.7 0 0 1 12.5 -12.6z"/>
<path class="k" d="M1948,589.7h.6a3.5,3.5,0,0,1,2.7.8,19.9,19.9,0,0,1,2.2,3.2l1.3,2.7h4l-1.8-3.3c-1.7-2.9-2.1-3.3-3.5-3.8,2.8-.4,4.4-2.1,4.4-4.6s-1.6-4.5-5.1-4.5h-8.2v16.2h3.4Zm0-7h3.1c2.1,0,3.3.8,3.3,2.2s-.7,2.3-3,2.3H1948Z"/>
</svg>