<?xml version="1.0" encoding="UTF-8" standalone="no"?>
<svg width="16mm" height="16mm" viewBox="0 0 16 16" version="1.1" xmlns="http://www.w3.org/2000/svg">
	<mask id="mask">
		<rect id="back" x="0" y="y" width="16" height="16" fill="#ffffff" />
		<polygon id="hole" points="8,4 8.75777222831,8 8,12 4.53589838486,10 4.53589838486,6" fill="#000000" />
	</mask>
	<polygon id="c" points="8,1 8.75777222831,15 8,15 1.93782217351,11.5 1.93782217351,4.5" fill="#000000" mask="url(#mask)" />
	<path id="feather1" d="M 8,8 9.49554445662,6 V 13.25 C 9.49554445662,15.125 8,16 8,14.125 Z" fill="#000000" />
	<path id="feather2" d="M 9.53554445662,6 11.0110889132,6 V 12.375 C 11.0110889132,14.25 9.53554445662,15.125 9.53554445662,13.25 Z" fill="#000000" />
	<path id="feather3" d="M 11.0510889132,6 12.5266333699,6 V 11.5 C 12.5266333699,13.375 11.0510889132,14.25 11.0510889132,12.375 Z" fill="#000000" />
	<path id="feather4" d="M 12.5666333699,6 14.0621778265,6 V 10.625 C 14.0621778265,12.5 12.5666333699,13.375 12.5666333699,11.5" fill="#000000" />
	<polygon id="yellow" points="8.75777222831,4.5 14.0621778265,4.5 14.0621778265,6 8,8" fill="#ffc864" />
	<polygon id="red" points="8,1 14.0621778265,4.5 8,8" fill="#ff2c00" />
</svg>
