<?xml version="1.0" encoding="UTF-8" standalone="no"?>
<svg width="32mm" height="32mm" viewBox="0 0 32 32" version="1.1" xmlns="http://www.w3.org/2000/svg">
	<path id="feather4" d="M 26.875,16 30,16 30,24 26.875,25.785714 Z" fill="black" />
	<path id="feather3" d="M 23.25,16 26.375,16 26.375,26.071429 23.25,27.857143 Z" fill="black" />
	<path id="feather2" d="M 19.625,20 22.75,20 22.75,28.142857 19.625,29.928571 Z" fill="black" />
	<path id="feather1" d="M 16,20 19.125,20 19.125,30.214286 16,32 Z" fill="black" />
	<path id="cBottom" d="M 2,16 16,24 17,24 16,32 2,24 Z" fill="black" />
	<rect id="cLeft" x="2" y="8" width="7" height="16" fill="black" />
	<path id="cTop" d="M 2,8 16,0 17,8 16,8 2,16 Z" fill="black" />
	<path id="black" d="M 16,20 30,12 30,16 16,24 Z" fill="black" />
	<path id="yellow" d="M 16,16 30,8 30,12 16,20 Z" fill="#ffc864" />
	<path id="red" d="M 16,0 30,8 16,16 Z" fill="#ff2c00" />
</svg>
