<?xml version="1.0" encoding="UTF-8" standalone="no"?>
<svg width="16mm" height="16mm" viewBox="0 0 16 16" version="1.1" xmlns="http://www.w3.org/2000/svg">
	<polygon id="bg" points="8,0 14.928203,4 14.928203,12 8,16 1.071797,12 1.071797,4" fill="#ffffff" />
	<polygon id="c" points="8,1 14.062178,6.5 14.062178,11.5 8,15 1.937822,11.5 1.937822,4.5" fill="#000000" />
	<polygon id="hole" points="8,4 9,8 8,12 4.535898,10 4.535898,6" fill="#ffffff" />
	<rect id="featherGap3" x="12.421633" y="8" width="0.5" height="4.75" fill="#ffffff" />
	<rect id="featherGap2" x="10.781089" y="8" width="0.5" height="5.75" fill="#ffffff" />
	<rect id="featherGap1" x="9.140544" y="8" width="0.5" height="6.75" fill="#ffffff" />
	<polygon id="black" points="8,10 9,8 14.062178,6.5 14.062178,8.5 8,12" fill="#000000" />
	<polygon id="yellow" points="8,8 9,6 14.062178,4.5 14.062178,6.5 8,10" fill="#ffc864" />
	<polygon id="red" points="8,1 14.062178,4.5 8,8" fill="#ff2c00" />
</svg>
